<svg width="18" height="18" viewBox="0 0 18 18" fill="none" xmlns="http://www.w3.org/2000/svg">
<path d="M14.9606 3.22216C13.4161 1.67719 11.3226 0.806842 9.13801 0.801538C6.95343 0.796234 4.85569 1.6564 3.30371 3.19385V1.36003H2.18643V5.27049H6.0969V4.15322H3.92193C4.58951 3.44664 5.39428 2.88374 6.28696 2.499C7.17965 2.11426 8.14147 1.91577 9.11354 1.91569C13.0579 1.91569 16.2671 5.12488 16.2671 9.06923C16.2671 13.0136 13.0579 16.2228 9.11354 16.2228C5.16919 16.2228 1.96 13.0136 1.96 9.06923H0.845703C0.845375 10.7047 1.3301 12.3035 2.23856 13.6635C3.14702 15.0234 4.4384 16.0834 5.94935 16.7093C7.46031 17.3352 9.12295 17.4989 10.727 17.1798C12.331 16.8606 13.8043 16.0729 14.9606 14.9163C15.7286 14.1485 16.3378 13.237 16.7535 12.2337C17.1691 11.2305 17.383 10.1552 17.383 9.06923C17.383 7.98329 17.1691 6.90798 16.7535 5.90472C16.3378 4.90147 15.7286 3.98993 14.9606 3.22216Z" fill="#027A56" stroke="#027A56" stroke-width="0.5"/>
</svg>
