<svg width="35" height="34" viewBox="0 0 35 34" fill="none" xmlns="http://www.w3.org/2000/svg">
<rect x="0.866699" y="0.00268555" width="33.1987" height="33.1987" rx="16.5994" fill="#FDF4F4"/>
<path fill-rule="evenodd" clip-rule="evenodd" d="M24.1798 10.6203H10.7524C10.3818 10.6203 10.081 10.3072 10.081 9.91978C10.081 9.53307 10.3818 9.21922 10.7524 9.21922H24.1798C24.5504 9.21922 24.8511 9.53307 24.8511 9.91978C24.8511 10.3072 24.5504 10.6203 24.1798 10.6203ZM23.5084 24.6315C23.5084 25.4049 22.9069 26.0326 22.1657 26.0326H12.7665C12.0253 26.0326 11.4238 25.4049 11.4238 24.6315V12.0215H23.5084V24.6315ZM15.452 7.11755C15.452 6.73014 15.7527 6.41699 16.1233 6.41699H18.8088C19.1794 6.41699 19.4802 6.73014 19.4802 7.11755V7.8181H15.452V7.11755ZM24.8511 7.8181H20.8229V6.41699C20.8229 5.64357 20.2214 5.01587 19.4802 5.01587H15.452C14.7108 5.01587 14.1092 5.64357 14.1092 6.41699V7.8181H10.081C9.33983 7.8181 8.73828 8.44581 8.73828 9.21922V10.6203C8.73828 11.3938 9.33983 12.0215 10.081 12.0215V24.6315C10.081 26.1791 11.2834 27.4338 12.7665 27.4338H22.1657C23.6487 27.4338 24.8511 26.1791 24.8511 24.6315V12.0215C25.5923 12.0215 26.1939 11.3938 26.1939 10.6203V9.21922C26.1939 8.44581 25.5923 7.8181 24.8511 7.8181ZM17.4661 24.6315C17.8367 24.6315 18.1374 24.3184 18.1374 23.931V15.5243C18.1374 15.1375 17.8367 14.8237 17.4661 14.8237C17.0955 14.8237 16.7947 15.1375 16.7947 15.5243V23.931C16.7947 24.3184 17.0955 24.6315 17.4661 24.6315ZM14.1092 24.6315C14.4798 24.6315 14.7806 24.3184 14.7806 23.931V15.5243C14.7806 15.1375 14.4798 14.8237 14.1092 14.8237C13.7386 14.8237 13.4379 15.1375 13.4379 15.5243V23.931C13.4379 24.3184 13.7386 24.6315 14.1092 24.6315ZM20.8229 24.6315C21.1935 24.6315 21.4943 24.3184 21.4943 23.931V15.5243C21.4943 15.1375 21.1935 14.8237 20.8229 14.8237C20.4523 14.8237 20.1516 15.1375 20.1516 15.5243V23.931C20.1516 24.3184 20.4523 24.6315 20.8229 24.6315Z" fill="#E04242"/>
</svg>
